<svg xmlns="http://www.w3.org/2000/svg" width="128" height="128" viewBox="0 0 128 128" role="img" aria-label="Summarize Sender icon 128">
  <defs>
    <linearGradient id="g128" x1="0%" x2="100%" y1="0%" y2="100%">
      <stop offset="0%" stop-color="#4f46e5" />
      <stop offset="100%" stop-color="#22c55e" />
    </linearGradient>
  </defs>
  <rect width="128" height="128" rx="20" fill="url(#g128)" />
  <path fill="#ffffff" d="M30 42c0-4 2.7-6.8 6.8-6.8h22.8c6.7 0 12.2 5.2 12.2 12 0 6.5-5.2 11.9-11.8 12.2l-14.3.8c-2 .1-3.5 1.7-3.5 3.7 0 2 .1 3 2.7 3.3l24.5 2.3c6.9.7 12.1 6.3 12.1 13.2 0 7.7-6.1 14-13.9 14H45.4C41 96.7 37.8 93 37.8 88.7v-1.6c0-1.3 1-2.3 2.3-2.3H45c1.3 0 2.3 1 2.3 2.3v.6c0 .8.6 1.5 1.5 1.5h14.3c1.8 0 3.1-1.3 3.1-3.1 0-1.7-1.3-3-2.9-3.2l-22.5-2.4C31.7 78.7 26 72.8 26 65.5c0-8.2 6.7-14.9 14.9-14.9h13.2c2.1 0 3.7-1.6 3.7-3.7 0-2-1.5-3.5-3.5-3.5H41c-1.3 0-2.3 1-2.3 2.3v1c0 1.3-1 2.3-2.3 2.3h-3.6c-1.3 0-2.8-1.6-2.8-3z" />
</svg>
