<svg xmlns="http://www.w3.org/2000/svg" width="32" height="32" viewBox="0 0 32 32" role="img" aria-label="Summarize Sender icon 32">
  <defs>
    <linearGradient id="g32" x1="0%" x2="100%" y1="0%" y2="100%">
      <stop offset="0%" stop-color="#4f46e5" />
      <stop offset="100%" stop-color="#22c55e" />
    </linearGradient>
  </defs>
  <rect width="32" height="32" rx="6" fill="url(#g32)" />
  <path fill="#ffffff" d="M8.5 10.5c0-1.2.8-2 2-2h4.3c1.5 0 2.7 1.1 2.7 2.6 0 1.4-1.1 2.5-2.6 2.6l-2.9.2c-.6 0-1.2.5-1.2 1.2 0 .6.4 1.1 1 1.2l5.1.5c1.7.2 3 1.6 3 3.3 0 1.9-1.5 3.4-3.4 3.4h-5.5c-1.3 0-2.2-1-2.2-2.2v-.5c0-.5.4-.9.9-.9h1.2c.5 0 .9.4.9.9v.2c0 .3.2.5.5.5h3.4c.5 0 .8-.3.8-.8 0-.4-.3-.7-.7-.7l-5-.5c-1.7-.2-3-1.6-3-3.3 0-1.9 1.5-3.4 3.4-3.4h3c.6 0 1.1-.5 1.1-1.1 0-.6-.4-1-.9-1h-3.7c-.5 0-.9.4-.9.9v.4c0 .5-.4.9-.9.9h-1.1c-.5 0-.9-.4-.9-.9z" />
</svg>
