<svg xmlns="http://www.w3.org/2000/svg" width="48" height="48" viewBox="0 0 48 48" role="img" aria-label="Summarize Sender icon 48">
  <defs>
    <linearGradient id="g48" x1="0%" x2="100%" y1="0%" y2="100%">
      <stop offset="0%" stop-color="#4f46e5" />
      <stop offset="100%" stop-color="#22c55e" />
    </linearGradient>
  </defs>
  <rect width="48" height="48" rx="8" fill="url(#g48)" />
  <path fill="#ffffff" d="M12 16.5c0-1.4.9-2.5 2.5-2.5h7.2c2.1 0 3.8 1.6 3.8 3.7 0 2-1.6 3.6-3.6 3.7l-4.5.3c-.8 0-1.4.7-1.4 1.5 0 .8.6 1.4 1.3 1.5l7.7.7c2.4.2 4.4 2.3 4.4 4.8 0 2.8-2.2 5-5 5h-8.1c-1.6 0-2.9-1.3-2.9-2.9V31c0-.6.5-1.1 1.1-1.1h1.6c.6 0 1.1.5 1.1 1.1v.2c0 .4.3.7.7.7h5c.7 0 1.1-.4 1.1-1.1 0-.5-.4-.9-.9-1l-7.5-.8c-2.4-.3-4.4-2.3-4.4-4.8 0-2.8 2.2-5 5-5h4.4c.7 0 1.3-.6 1.3-1.3 0-.7-.5-1.2-1.2-1.2h-5.8c-.6 0-1.1.5-1.1 1.1v.5c0 .6-.5 1.1-1.1 1.1h-1.6c-.7 0-1.1-.5-1.1-1.2z" />
</svg>
